<svg width="200" height="49" viewBox="0 0 200 49" fill="none" xmlns="http://www.w3.org/2000/svg">
<path d="M45.1853 0H22.2297C21.3386 5.90228e-06 20.484 0.35369 19.8535 0.983368L0.983368 19.8535C0.356903 20.4798 0.00342807 21.3284 0 22.2142L0 45.1698C0 46.06 0.353628 46.9137 0.983091 47.5432C1.61255 48.1727 2.46629 48.5263 3.35648 48.5263H45.1853C46.0755 48.5263 46.9292 48.1727 47.5587 47.5432C48.1882 46.9137 48.5418 46.06 48.5418 45.1698V3.35648C48.5418 2.46629 48.1882 1.61255 47.5587 0.983091C46.9292 0.353628 46.0755 0 45.1853 0V0ZM8.45635 24.2678C8.45696 22.7721 8.90104 21.3102 9.73244 20.0669C10.5638 18.8236 11.7452 17.8547 13.1272 17.2828C14.5092 16.7108 16.0298 16.5615 17.4966 16.8537C18.9635 17.1458 20.3108 17.8664 21.3682 18.9242C22.4256 19.982 23.1456 21.3296 23.4371 22.7966C23.7287 24.2636 23.5787 25.7841 23.0062 27.1658C22.4337 28.5476 21.4644 29.7286 20.2207 30.5595C18.9771 31.3904 17.515 31.8338 16.0193 31.8338C15.0258 31.8338 14.0421 31.6381 13.1244 31.2578C12.2066 30.8776 11.3727 30.3202 10.6704 29.6176C9.96806 28.915 9.41104 28.0809 9.03115 27.163C8.65126 26.245 8.45594 25.2612 8.45635 24.2678ZM24.8975 43.7335C22.8917 43.7335 20.968 42.9367 19.5497 41.5184C18.1314 40.1001 17.3346 38.1764 17.3346 36.1706H32.4605C32.4609 37.1642 32.2656 38.1481 31.8857 39.0662C31.5059 39.9843 30.9489 40.8186 30.2466 41.5215C29.5443 42.2244 28.7105 42.782 27.7927 43.1626C26.8749 43.5432 25.8911 43.7393 24.8975 43.7397V43.7335ZM37.7837 24.4415C37.7034 23.0857 37.1083 21.8118 36.12 20.8803C35.1317 19.9487 33.8248 19.4299 32.4667 19.4299C31.1085 19.4299 29.8017 19.9487 28.8134 20.8803C27.825 21.8118 27.2299 23.0857 27.1497 24.4415H24.9565C24.9361 23.4352 25.1167 22.435 25.4877 21.4994C25.8587 20.5638 26.4126 19.7116 27.1171 18.9928C27.8215 18.2739 28.6623 17.7028 29.5902 17.313C30.5181 16.9231 31.5145 16.7223 32.521 16.7223C33.5274 16.7223 34.5238 16.9231 35.4517 17.313C36.3796 17.7028 37.2204 18.2739 37.9248 18.9928C38.6293 19.7116 39.1832 20.5638 39.5542 21.4994C39.9252 22.435 40.1058 23.4352 40.0854 24.4415H37.7837Z" fill="white"/>
<path d="M75.1424 28.434C75.8646 29.3947 76.1997 30.5917 76.0814 31.7878C75.963 32.9839 75.3999 34.0919 74.5034 34.8925C73.4342 35.788 71.9442 36.2358 70.0333 36.2358H61.5149V17.9333H69.7479C71.6091 17.9333 73.064 18.3593 74.1125 19.2114C74.6303 19.6263 75.0431 20.1574 75.3174 20.7615C75.5917 21.3657 75.7199 22.0259 75.6915 22.6888C75.7272 23.6542 75.428 24.6022 74.8446 25.3722C74.2679 26.0917 73.4786 26.6106 72.5894 26.855C73.6034 27.0551 74.5105 27.6161 75.1424 28.434ZM65.9695 25.3318H68.8886C69.4879 25.3721 70.0825 25.2021 70.5699 24.851C70.7703 24.6752 70.9274 24.4555 71.0291 24.2091C71.1308 23.9627 71.1743 23.6962 71.1562 23.4303C71.1689 23.1672 71.1229 22.9046 71.0215 22.6615C70.9201 22.4185 70.7658 22.201 70.5699 22.025C70.0855 21.6669 69.4897 21.4921 68.8886 21.5318H65.9695V25.3318ZM70.9856 32.1193C71.1948 31.9381 71.3595 31.7113 71.4671 31.4563C71.5747 31.2014 71.6222 30.9251 71.606 30.6489C71.6163 30.3683 71.5637 30.0889 71.4521 29.8313C71.3404 29.5736 71.1726 29.3442 70.9608 29.1598C70.4604 28.7697 69.8354 28.5746 69.2019 28.6108H65.9695V32.6435H69.2515C69.8717 32.6815 70.4855 32.5003 70.9856 32.1317V32.1193Z" fill="white"/>
<path d="M85.0939 22.2328C85.8832 21.7691 86.7843 21.5298 87.6997 21.5411V26.2563H86.4744C85.3607 26.2563 84.5294 26.4951 83.9741 26.9728C83.4188 27.4506 83.1365 28.2881 83.1365 29.4887V36.2357H78.685V21.7148H83.1365V24.1375C83.6297 23.3572 84.3004 22.7045 85.0939 22.2328Z" fill="white"/>
<path d="M90.1597 19.4967C89.9213 19.2819 89.7317 19.0185 89.6038 18.7241C89.4759 18.4298 89.4126 18.1114 89.4183 17.7906C89.4109 17.4653 89.4732 17.1423 89.6011 16.8431C89.7289 16.544 89.9194 16.2758 90.1597 16.0565C90.6838 15.5866 91.3704 15.3396 92.0737 15.3678C92.7693 15.3415 93.4475 15.5887 93.9629 16.0565C94.2041 16.2752 94.3954 16.5433 94.5238 16.8425C94.6523 17.1417 94.7149 17.465 94.7074 17.7906C94.7133 18.1118 94.6499 18.4304 94.5214 18.7249C94.3929 19.0193 94.2024 19.2826 93.9629 19.4967C93.4475 19.9645 92.7693 20.2117 92.0737 20.1854C91.3704 20.2136 90.6838 19.9665 90.1597 19.4967ZM94.3041 21.7147V36.2512H89.834V21.7147H94.3041Z" fill="white"/>
<path d="M100.046 35.7921C99.1245 35.4098 98.3175 34.7953 97.704 34.0084C97.1386 33.2754 96.8029 32.3913 96.7393 31.4678H101.129C101.149 31.7132 101.223 31.9512 101.345 32.1655C101.466 32.3797 101.633 32.565 101.833 32.7086C102.279 33.0306 102.819 33.1953 103.368 33.177C103.822 33.2049 104.273 33.0911 104.659 32.8513C104.8 32.7599 104.916 32.6344 104.996 32.4864C105.075 32.3383 105.116 32.1726 105.115 32.0044C105.117 31.8008 105.055 31.6016 104.938 31.4347C104.822 31.2679 104.656 31.1417 104.464 31.0738C103.786 30.7911 103.085 30.566 102.37 30.4006C101.485 30.2036 100.614 29.9465 99.7638 29.6313C99.0681 29.3613 98.4508 28.922 97.9677 28.3532C97.4339 27.6873 97.1644 26.8479 97.2108 25.9956C97.2045 25.183 97.4458 24.3877 97.9026 23.7156C98.4098 22.99 99.1152 22.4257 99.9344 22.0901C100.943 21.6668 102.03 21.4617 103.123 21.4883C104.947 21.4883 106.386 21.9401 107.438 22.8439C108.493 23.7561 109.143 25.0488 109.247 26.4392H105.127C105.102 26.2056 105.03 25.9794 104.916 25.7738C104.802 25.5682 104.648 25.3874 104.464 25.2418C104.037 24.93 103.517 24.7734 102.99 24.7982C102.568 24.7743 102.15 24.8827 101.793 25.1084C101.66 25.199 101.553 25.3216 101.48 25.4647C101.407 25.6078 101.372 25.767 101.377 25.9274C101.379 26.1318 101.444 26.3306 101.563 26.4971C101.681 26.6635 101.848 26.7895 102.041 26.858C102.708 27.1363 103.403 27.3443 104.113 27.4784C105.006 27.6989 105.884 27.9734 106.744 28.3005C107.437 28.5795 108.049 29.0261 108.527 29.6003C109.069 30.2845 109.35 31.1385 109.321 32.0106C109.333 32.8277 109.082 33.6269 108.605 34.2907C108.08 34.9974 107.367 35.5432 106.548 35.8665C105.563 36.2647 104.508 36.4599 103.446 36.4404C102.28 36.4634 101.122 36.2426 100.046 35.7921Z" fill="white"/>
<path d="M120.942 36.2357L116.512 30.1401V36.2357H112.058V16.9561H116.512V27.6087L120.917 21.7147H126.414L120.362 28.9923L126.461 36.2357H120.942Z" fill="white"/>
<path d="M143.386 36.2699H141.016L131.48 21.8109V36.2699H129.107V18.0853H131.48L141.016 32.5194V18.0853H143.386V36.2699Z" fill="white"/>
<path d="M150.015 35.5936C148.934 34.9907 148.048 34.0908 147.462 33.0002C146.824 31.8034 146.503 30.463 146.531 29.1071C146.504 27.7564 146.832 26.4223 147.484 25.2387C148.084 24.1442 148.985 23.2443 150.08 22.6454C151.215 22.0544 152.475 21.7458 153.754 21.7458C155.034 21.7458 156.294 22.0544 157.429 22.6454C158.517 23.2395 159.415 24.1288 160.019 25.2108C160.673 26.3989 161.002 27.7387 160.971 29.0947C161.001 30.4565 160.663 31.8012 159.994 32.9878C159.372 34.0822 158.455 34.9806 157.348 35.5812C156.213 36.195 154.941 36.5089 153.651 36.4932C152.381 36.5139 151.128 36.2039 150.015 35.5936ZM156.036 33.813C156.798 33.3988 157.427 32.7757 157.848 32.0168C158.331 31.1216 158.57 30.1147 158.539 29.0978C158.571 28.0822 158.337 27.076 157.86 26.1787C157.454 25.4258 156.839 24.8063 156.089 24.395C155.356 24.0099 154.54 23.8088 153.713 23.8088C152.885 23.8088 152.069 24.0099 151.336 24.395C150.595 24.8055 149.992 25.4261 149.602 26.1787C149.144 27.0817 148.92 28.0855 148.951 29.0978C148.919 30.1167 149.138 31.1278 149.59 32.0417C149.969 32.7924 150.563 33.4133 151.296 33.8254C152.015 34.2184 152.822 34.4202 153.641 34.4117C154.477 34.416 155.301 34.2102 156.036 33.813Z" fill="white"/>
<path d="M166.99 23.9483V32.3643C166.99 33.0592 167.135 33.5493 167.433 33.8347C167.731 34.1201 168.24 34.2659 168.984 34.2659H170.731V36.2698H168.593C167.275 36.2698 166.282 35.9596 165.625 35.3609C164.967 34.7622 164.635 33.754 164.635 32.3643V23.9483H162.774V21.9939H164.635V18.3986H167.005V21.9939H170.728V23.9483H166.99Z" fill="white"/>
<path d="M186.53 30.0191H175.117C175.204 31.4254 175.686 32.5235 176.563 33.3135C177.436 34.1025 178.578 34.5266 179.755 34.4985C180.664 34.5316 181.56 34.2811 182.32 33.7819C182.998 33.3182 183.507 32.6463 183.769 31.8679H186.322C185.958 33.2105 185.15 34.3902 184.029 35.2151C182.786 36.1051 181.283 36.5588 179.755 36.5056C178.485 36.5272 177.231 36.2126 176.122 35.5936C175.053 34.9872 174.18 34.0872 173.606 33.0002C172.979 31.8002 172.665 30.4609 172.694 29.1071C172.664 27.759 172.969 26.4244 173.582 25.2232C174.14 24.1434 175.003 23.2514 176.063 22.6578C177.193 22.043 178.463 21.7329 179.749 21.7582C181.006 21.7331 182.248 22.0391 183.35 22.6454C184.369 23.2113 185.205 24.0561 185.76 25.0805C186.336 26.1581 186.627 27.3645 186.607 28.5859C186.606 29.0647 186.58 29.543 186.53 30.0191ZM183.558 25.7475C183.17 25.1053 182.604 24.5892 181.929 24.2616C181.22 23.9177 180.441 23.7435 179.652 23.7528C178.522 23.7259 177.425 24.1371 176.591 24.9006C175.747 25.672 175.265 26.735 175.145 28.0896H184.16C184.184 27.2678 183.975 26.4559 183.558 25.7475Z" fill="white"/>
<path d="M191.844 35.9441C191.033 35.6168 190.323 35.0819 189.784 34.3931C189.282 33.7242 188.993 32.9202 188.953 32.0851H191.4C191.431 32.4316 191.537 32.7672 191.711 33.0687C191.884 33.3703 192.121 33.6305 192.405 33.8316C193.095 34.3112 193.924 34.549 194.763 34.5078C195.521 34.5513 196.272 34.3407 196.897 33.9091C197.14 33.7394 197.338 33.5133 197.474 33.2501C197.61 32.987 197.681 32.6947 197.679 32.3984C197.69 32.1103 197.617 31.8252 197.469 31.5779C197.32 31.3306 197.104 31.1317 196.844 31.0056C196.023 30.6055 195.158 30.3036 194.266 30.106C193.383 29.8866 192.516 29.6035 191.673 29.2591C191.007 28.9752 190.418 28.5372 189.955 27.981C189.449 27.3497 189.191 26.5555 189.229 25.7475C189.226 25.027 189.454 24.3247 189.88 23.7435C190.358 23.1015 191.001 22.6017 191.741 22.2979C192.605 21.9279 193.538 21.745 194.477 21.7613C196.06 21.7613 197.337 22.1615 198.309 22.9618C198.79 23.3638 199.177 23.8655 199.445 24.4322C199.713 24.9989 199.854 25.617 199.86 26.2438H197.486C197.473 25.8979 197.387 25.5588 197.232 25.2491C197.077 24.9394 196.858 24.6662 196.59 24.4477C195.959 23.9679 195.179 23.7272 194.387 23.7683C193.669 23.7308 192.957 23.9231 192.356 24.3174C192.122 24.4746 191.931 24.6877 191.8 24.9375C191.67 25.1873 191.604 25.4657 191.608 25.7475C191.601 25.9618 191.637 26.1753 191.716 26.3748C191.794 26.5743 191.913 26.7557 192.064 26.9077C192.392 27.2281 192.783 27.4765 193.212 27.6367C193.839 27.8762 194.478 28.0832 195.126 28.2571C195.976 28.4765 196.811 28.7501 197.626 29.0761C198.267 29.3432 198.834 29.759 199.283 30.289C199.763 30.8855 200.017 31.6327 199.999 32.3984C200.008 33.1524 199.78 33.8901 199.348 34.5078C198.883 35.1599 198.248 35.6709 197.511 35.9845C196.652 36.3544 195.723 36.5363 194.788 36.518C193.777 36.5311 192.775 36.3358 191.844 35.9441Z" fill="white"/>
</svg>
